<svg width="30" height="36" viewBox="0 0 30 36" fill="none" xmlns="http://www.w3.org/2000/svg">
<path d="M24.6551 18.9721C24.6387 16.1748 25.9061 14.0666 28.4654 12.5121C27.034 10.4613 24.8684 9.3334 22.0137 9.11602C19.3107 8.90273 16.3535 10.691 15.2707 10.691C14.1264 10.691 11.5096 9.18984 9.45059 9.18984C5.20137 9.25547 0.685547 12.5777 0.685547 19.3371C0.685547 21.3346 1.05059 23.3977 1.78066 25.5223C2.75684 28.3195 6.27598 35.1732 9.94687 35.0625C11.8664 35.0174 13.224 33.7008 15.7219 33.7008C18.1459 33.7008 19.401 35.0625 21.542 35.0625C25.2457 35.0092 28.4285 28.7789 29.3555 25.9734C24.3885 23.6314 24.6551 19.1156 24.6551 18.9721ZM20.3443 6.4623C22.4238 3.99316 22.2352 1.74551 22.1736 0.9375C20.3361 1.04414 18.2115 2.18848 17.0016 3.59531C15.6686 5.10469 14.8852 6.9709 15.0533 9.075C17.0385 9.22676 18.8514 8.20547 20.3443 6.4623Z" fill="#101D42"/>
</svg>
