<svg width="46" height="46" viewBox="0 0 46 46" fill="none" xmlns="http://www.w3.org/2000/svg">
<path d="M43.8438 0.34375H2.15625C1.15371 0.34375 0.34375 1.15371 0.34375 2.15625V43.8438C0.34375 44.8463 1.15371 45.6562 2.15625 45.6562H43.8438C44.8463 45.6562 45.6562 44.8463 45.6562 43.8438V2.15625C45.6562 1.15371 44.8463 0.34375 43.8438 0.34375ZM32.459 33.5125C30.1594 35.6309 27.0215 36.877 23.2775 36.877C17.857 36.877 13.1672 33.7674 10.8846 29.2361C9.91199 27.3012 9.40572 25.1656 9.40625 23C9.40625 20.757 9.94434 18.6387 10.8846 16.7639C13.1672 12.227 17.857 9.11738 23.2775 9.11738C27.0158 9.11738 30.1537 10.4938 32.5609 12.7311L28.5848 16.7129C27.1461 15.3365 25.3166 14.6398 23.2832 14.6398C19.6695 14.6398 16.6109 17.0811 15.5178 20.3605C15.2402 21.1932 15.0816 22.0824 15.0816 23C15.0816 23.9176 15.2402 24.8068 15.5178 25.6395C16.6109 28.9189 19.6695 31.3602 23.2775 31.3602C25.1467 31.3602 26.7326 30.8674 27.973 30.0348C29.4457 29.0492 30.4199 27.5822 30.7428 25.8434H23.2775V20.4738H36.3445C36.5088 21.3857 36.5938 22.3316 36.5938 23.3115C36.5938 27.5426 35.0814 31.0939 32.459 33.5125Z" fill="#101D42"/>
</svg>
